<?xml version="1.0" encoding="utf-8"?>
<!-- Generator: Adobe Illustrator 23.0.1, SVG Export Plug-In . SVG Version: 6.00 Build 0)  -->
<svg version="1.1" id="Ebene_1" xmlns="http://www.w3.org/2000/svg" xmlns:xlink="http://www.w3.org/1999/xlink" x="0px" y="0px"
	 width="1105.8px" height="652.5px" viewBox="0 0 1105.8 652.5" style="enable-background:new 0 0 1105.8 652.5;"
	 xml:space="preserve">
<style type="text/css">
	.st0{fill:#695020;}
	.st1{fill:#588E3F;}
	.st2{fill:#44722D;}
	.st3{opacity:0.15;stroke:#333333;stroke-width:0.5;stroke-miterlimit:10;}
	.st4{fill:#F4803B;}
	.st5{fill:#F7953E;}
	.st6{fill:#FAAF40;}
	.st7{fill:#7B3319;}
	.st8{fill:#FFCD40;}
	.st9{fill:#F4823C;}
	.st10{fill:#5D2206;}
	.st11{fill:#B1B2AB;}
	.st12{fill:#3F2403;}
	.st13{opacity:0.46;fill:#FA352C;}
	.st14{fill:#553101;}
	.st15{fill:#683707;}
	.st16{opacity:0.58;fill:#683707;}
	.st17{opacity:0.84;fill:#F72B1E;}
	.st18{opacity:0.69;fill:#FA352C;}
	.st19{opacity:0.64;fill:#FAC600;}
	.st20{fill:#FAC600;}
	.st21{fill:#F4E000;}
	.st22{fill:#2D1606;}
	.st23{fill:#C0804F;}
	.st24{fill:#D8983A;}
	.st25{fill:#B77548;}
	.st26{fill:#CE8B32;}
	.st27{fill:#B77141;}
	.st28{fill:#A86233;}
	.st29{fill:#F72B1E;}
	.st30{fill:#DB915E;}
	.st31{fill:#AA5F2D;}
	.st32{fill:#935022;}
	.st33{fill:#C4743D;}
</style>
<g>
	<g>
		<g>
			<polygon class="st0" points="233.7,282.2 228.8,282.8 224,282.2 215.5,406.1 228.8,406.1 242.2,406.1 			"/>
		</g>
		<g>
			<polygon class="st1" points="291.9,310.9 298.9,310.9 282.9,274.3 291.9,274.3 278.8,245.4 286.9,245.4 268.8,217.5 279.8,217.5 
				261.8,181.6 268.8,181.6 254.8,150 264.8,150 248.8,122.8 259.8,122.8 240.8,95.9 249.8,95.9 228.8,50 207.8,95.9 216.8,95.9 
				197.8,122.8 208.8,122.8 192.8,150 202.8,150 188.8,181.6 195.8,181.6 177.8,217.5 188.8,217.5 170.8,245.4 178.8,245.4 
				165.8,274.3 174.8,274.3 158.8,310.9 165.8,310.9 148.8,344.1 228.8,344.1 308.9,344.1 			"/>
		</g>
	</g>
	<path class="st2" d="M308.9,344.1l-17-33.2h7l-16-36.6h9l-13-28.9h8l-18-27.9h11l-18-35.9h7l-14-31.6h10l-16-27.3h11l-19-26.9h9
		l-21-45.9c15.1,139.5,0,232.8-23.6,260.2c-23.6,27.4-56.4,33.9-56.4,33.9h80H308.9z"/>
</g>
<g>
	<g>
		<g>
			<polygon class="st0" points="318.7,232.2 313.8,232.8 309,232.2 300.5,356.1 313.8,356.1 327.2,356.1 			"/>
		</g>
		<g>
			<polygon class="st1" points="376.9,260.9 383.9,260.9 367.9,224.3 376.9,224.3 363.8,195.4 371.9,195.4 353.8,167.5 364.8,167.5 
				346.8,131.6 353.8,131.6 339.8,100 349.8,100 333.8,72.8 344.8,72.8 325.8,45.9 334.8,45.9 313.8,0 292.8,45.9 301.8,45.9 
				282.8,72.8 293.8,72.8 277.8,100 287.8,100 273.8,131.6 280.8,131.6 262.8,167.5 273.8,167.5 255.8,195.4 263.8,195.4 
				250.8,224.3 259.8,224.3 243.8,260.9 250.8,260.9 233.8,294.1 313.8,294.1 393.9,294.1 			"/>
		</g>
	</g>
	<path class="st2" d="M393.9,294.1l-17-33.2h7l-16-36.6h9l-13-28.9h8l-18-27.9h11l-18-35.9h7l-14-31.6h10l-16-27.3h11l-19-26.9h9
		L313.8,0c15.1,139.5,0,232.8-23.6,260.2c-23.6,27.4-56.4,33.9-56.4,33.9h80H393.9z"/>
</g>
<g>
	<g>
		<g>
			<polygon class="st0" points="141.7,258.2 136.8,258.8 132,258.2 123.5,382.1 136.8,382.1 150.2,382.1 			"/>
		</g>
		<g>
			<polygon class="st1" points="199.9,286.9 206.9,286.9 190.9,250.3 199.9,250.3 186.8,221.4 194.9,221.4 176.8,193.5 187.8,193.5 
				169.8,157.6 176.8,157.6 162.8,126 172.8,126 156.8,98.8 167.8,98.8 148.8,71.9 157.8,71.9 136.8,26 115.8,71.9 124.8,71.9 
				105.8,98.8 116.8,98.8 100.8,126 110.8,126 96.8,157.6 103.8,157.6 85.8,193.5 96.8,193.5 78.8,221.4 86.8,221.4 73.8,250.3 
				82.8,250.3 66.8,286.9 73.8,286.9 56.8,320.1 136.8,320.1 216.9,320.1 			"/>
		</g>
	</g>
	<path class="st2" d="M216.9,320.1l-17-33.2h7l-16-36.6h9l-13-28.9h8l-18-27.9h11l-18-35.9h7l-14-31.6h10l-16-27.3h11l-19-26.9h9
		l-21-45.9c15.1,139.5,0,232.8-23.6,260.2c-23.6,27.4-56.4,33.9-56.4,33.9h80H216.9z"/>
</g>
<g>
	<g>
		<g>
			<polygon class="st0" points="652.7,301.2 647.8,301.8 643,301.2 634.5,425.1 647.8,425.1 661.2,425.1 			"/>
		</g>
		<g>
			<polygon class="st1" points="710.9,329.9 717.9,329.9 701.9,293.3 710.9,293.3 697.8,264.4 705.9,264.4 687.8,236.5 698.8,236.5 
				680.8,200.6 687.8,200.6 673.8,169 683.8,169 667.8,141.8 678.8,141.8 659.8,114.9 668.8,114.9 647.8,69 626.8,114.9 
				635.8,114.9 616.8,141.8 627.8,141.8 611.8,169 621.8,169 607.8,200.6 614.8,200.6 596.8,236.5 607.8,236.5 589.8,264.4 
				597.8,264.4 584.8,293.3 593.8,293.3 577.8,329.9 584.8,329.9 567.8,363.1 647.8,363.1 727.9,363.1 			"/>
		</g>
	</g>
	<path class="st2" d="M727.9,363.1l-17-33.2h7l-16-36.6h9l-13-28.9h8l-18-27.9h11l-18-35.9h7l-14-31.6h10l-16-27.3h11l-19-26.9h9
		l-21-45.9c15.1,139.5,0,232.8-23.6,260.2c-23.6,27.4-56.4,33.9-56.4,33.9h80H727.9z"/>
</g>
<g>
	<g>
		<g>
			<polygon class="st0" points="567.7,289.2 562.8,289.8 558,289.2 549.5,413.1 562.8,413.1 576.2,413.1 			"/>
		</g>
		<g>
			<polygon class="st1" points="625.9,317.9 632.9,317.9 616.9,281.3 625.9,281.3 612.8,252.4 620.9,252.4 602.8,224.5 613.8,224.5 
				595.8,188.6 602.8,188.6 588.8,157 598.8,157 582.8,129.8 593.8,129.8 574.8,102.9 583.8,102.9 562.8,57 541.8,102.9 
				550.8,102.9 531.8,129.8 542.8,129.8 526.8,157 536.8,157 522.8,188.6 529.8,188.6 511.8,224.5 522.8,224.5 504.8,252.4 
				512.8,252.4 499.8,281.3 508.8,281.3 492.8,317.9 499.8,317.9 482.8,351.1 562.8,351.1 642.9,351.1 			"/>
		</g>
	</g>
	<path class="st2" d="M642.9,351.1l-17-33.2h7l-16-36.6h9l-13-28.9h8l-18-27.9h11l-18-35.9h7l-14-31.6h10l-16-27.3h11l-19-26.9h9
		l-21-45.9c15.1,139.5,0,232.8-23.6,260.2c-23.6,27.4-56.4,33.9-56.4,33.9h80H642.9z"/>
</g>
<g>
	<g>
		<g>
			<polygon class="st0" points="765.7,270.2 760.8,270.8 756,270.2 747.5,394.1 760.8,394.1 774.2,394.1 			"/>
		</g>
		<g>
			<polygon class="st1" points="823.9,298.9 830.9,298.9 814.9,262.3 823.9,262.3 810.8,233.4 818.9,233.4 800.8,205.5 811.8,205.5 
				793.8,169.6 800.8,169.6 786.8,138 796.8,138 780.8,110.8 791.8,110.8 772.8,83.9 781.8,83.9 760.8,38 739.8,83.9 748.8,83.9 
				729.8,110.8 740.8,110.8 724.8,138 734.8,138 720.8,169.6 727.8,169.6 709.8,205.5 720.8,205.5 702.8,233.4 710.8,233.4 
				697.8,262.3 706.8,262.3 690.8,298.9 697.8,298.9 680.8,332.1 760.8,332.1 840.9,332.1 			"/>
		</g>
	</g>
	<path class="st2" d="M840.9,332.1l-17-33.2h7l-16-36.6h9l-13-28.9h8l-18-27.9h11l-18-35.9h7l-14-31.6h10l-16-27.3h11l-19-26.9h9
		l-21-45.9c15.1,139.5,0,232.8-23.6,260.2c-23.6,27.4-56.4,33.9-56.4,33.9h80H840.9z"/>
</g>
<g>
	<path id="XMLID_1_" class="st3" d="M700.5,435.1c0-23.7-156.8-43-350.1-43c-193.4,0-350.1,19.3-350.1,43c0,23.7,156.8,43,350.1,43
		C543.8,478.1,700.5,458.8,700.5,435.1z"/>
	<g>
		<path class="st4" d="M100.7,380.3l32.3,28.7l223.2,44.6c0,0-19.1-27.3-25.4-28.5c-6.3-1.2-175.5-44.9-175.5-44.9H100.7z"/>
	</g>
	<g>
		<path class="st5" d="M446.3,209.9c0,0-143.9-2.8-232.4-37.4c0,0-29.2,107-113.1,207.8l230.1,44.9l94.7-72.6L446.3,209.9z"/>
	</g>
	<g>
		<path class="st6" d="M570.2,425.1l-214,28.5l-25.4-28.5c0,0,98.5-125.2,115.4-215.2c0,0,32.3,109.6,136.2,182.9L570.2,425.1z"/>
	</g>
	<g>
		<polygon class="st7" points="446.3,209.9 494.7,435.2 420.9,445 		"/>
	</g>
	<g>
		<path class="st8" d="M446.3,209.9c0,0-27.7,138.8-62.3,218.9l37,16.2L446.3,209.9z"/>
	</g>
	<g>
		<path class="st8" d="M446.3,209.9l48.4,225.3l34.7-27.2C529.4,408,457.8,269.6,446.3,209.9z"/>
	</g>
	<g>
		<path class="st9" d="M383.9,261.3c0,0-46.2,123.1-210.1,115.4L383.9,261.3z"/>
	</g>
	<g>
		<path class="st9" d="M318.5,234.6c0,0-31,82.5-140.8,77.4L318.5,234.6z"/>
	</g>
	<g>
		<polygon class="st10" points="494.7,435.2 424.6,410.9 420.9,445 		"/>
	</g>
</g>
<g>
	<path id="XMLID_170_" class="st3" d="M1105.5,573.1c0-24.4-161.2-44.2-360.1-44.2c-198.9,0-360.1,19.8-360.1,44.2
		c0,24.4,161.2,44.2,360.1,44.2C944.3,617.3,1105.5,597.5,1105.5,573.1z"/>
	<g>
		<path class="st4" d="M1049.9,518.3l-35.3,31.3l-243.5,48.7c0,0,20.9-29.7,27.7-31.1c6.8-1.3,191.4-48.9,191.4-48.9H1049.9z"/>
	</g>
	<g>
		<path class="st5" d="M672.9,332.4c0,0,157-3,253.5-40.8c0,0,31.9,116.7,123.4,226.7l-251,48.9L695.6,488L672.9,332.4z"/>
	</g>
	<g>
		<path class="st6" d="M537.8,567.2l233.4,31.1l27.7-31.1c0,0-107.5-136.6-125.9-234.8c0,0-35.3,119.5-148.6,199.5L537.8,567.2z"/>
	</g>
	<g>
		<polygon class="st7" points="672.9,332.4 620.1,578.2 700.6,588.9 		"/>
	</g>
	<g>
		<path class="st8" d="M672.9,332.4c0,0,30.2,151.4,68,238.8l-40.3,17.7L672.9,332.4z"/>
	</g>
	<g>
		<path class="st8" d="M672.9,332.4l-52.8,245.8l-37.9-29.7C582.3,548.5,660.4,397.6,672.9,332.4z"/>
	</g>
	<g>
		<path class="st9" d="M741,388.5c0,0,50.4,134.3,229.2,125.9L741,388.5z"/>
	</g>
	<g>
		<path class="st9" d="M812.3,359.4c0,0,33.8,90,153.6,84.4L812.3,359.4z"/>
	</g>
	<g>
		<polygon class="st10" points="620.1,578.2 696.6,551.6 700.6,588.9 		"/>
	</g>
</g>
<g>
	<path id="XMLID_2_" class="st3" d="M414.5,638.1c0-7.8-51.6-14.1-115.1-14.1c-63.6,0-115.1,6.3-115.1,14.1
		c0,7.8,51.6,14.1,115.1,14.1C363,652.2,414.5,645.9,414.5,638.1z"/>
	<path class="st11" d="M318.6,615.3l-92.6,20.2l76.6,2.6c0,0,11.9-8.5,33.2-2.1h49.4c0,0,15.6,3,15.6-3.1
		C400.9,626.6,318.6,615.3,318.6,615.3z"/>
	<polygon class="st12" points="262.2,605 222.1,606.5 228,610.9 	"/>
	<polygon class="st12" points="267.3,625.7 211.9,633.7 225.5,633.7 	"/>
	<path class="st13" d="M298.3,558.7c0,0,5.2,20.2-6.1,21.2c-3.8,0.3-16.1-5.4-15.5-16.1c0.5-10.7-11.5-26.5-20.4-26.5
		c0,0,11,3.5,9.3,13c-1.9,10.4-8.7,7.3-12,18c0-2.3-6.9-8.1-7.5-8.8c2,3.3,4.5,12.7-1,22.3c-3.5,6.1-2.6,25.4,16.1,30
		c0,0,2.3,1.5,6.7-1.1c4.4-2.6,7.1-5.7,13.1-6c6-0.3,7.5,9.4,11.6,6.9c4.1-2.5,10.2-8,12.9-16.9
		C306.9,589.7,312.4,565.5,298.3,558.7z"/>
	<polygon class="st14" points="334.6,606.7 230.7,603.6 257,635.5 326.4,624.4 	"/>
	<path class="st12" d="M261.1,604.5l21.6,26.9l0,0l30.8-4.9h0C312.3,626.7,261.1,604.5,261.1,604.5z"/>
	<path class="st12" d="M250.9,628l6.1,7.4l69.4-11l8.2-17.7C334.6,606.7,298.8,631.3,250.9,628z"/>
	<path class="st15" d="M261.1,604.5l74.7,31.4h34.3l-0.4-37.1l-94.1-8.1C264.3,589,259.9,593.2,261.1,604.5L261.1,604.5z"/>
	<path class="st15" d="M297.6,597.9c0,0,22.7,1.8,28.5,2.5c5.8,0.7,24.4,0.2,24.4,0.2l1.4,6.7L297.6,597.9z"/>
	<polygon class="st15" points="338.5,614.4 386.4,619.1 373.7,624.7 	"/>
	<path class="st16" d="M288.7,599.8c0,0,8.9,0.1,16.2,2.7c7.3,2.6,24.3,6.6,24.3,6.6s-15.3,0.2-19.8-2.7
		C304.9,603.6,288.7,599.8,288.7,599.8z"/>
	<path class="st16" d="M283.3,593.5c0,0,6.5-0.7,13.8,1.3c7.3,2,23.8,1.5,23.8,1.5s-20,1.7-26.6-0.6
		C287.8,593.4,283.3,593.5,283.3,593.5z"/>
	<g>
		<path class="st17" d="M282.3,605.9c0,0-19.9-13.5-17.4-29.9c2.5-16.4,27.8-37.7,36.7-44.8c8.9-7.1,5.5-12.3,2.5-19.8
			c-3-7.5,11-22.2,11-22.2s-11.2,11.9-7.5,20.8s12.3,13.3,12.3,25.1s-7.7,11.9-5.2,18.3c2.5,6.4,29.8,15.8,21.8,35.6
			c-10.3,25.4-24.5,16.4-30.6,16.4C299.9,605.4,289.1,608.4,282.3,605.9z"/>
		<path class="st18" d="M325.6,544.2c0,0,6.1,23.5-7.1,24.7c-4.4,0.4-18.7-6.3-18.1-18.7c0.6-12.5-13.4-30.8-23.7-30.8
			c0,0,12.8,4.1,10.8,15.1c-2.2,12.1-11.7,12.4-15.5,24.8c0-2.7-2.5-13.3-3.2-14c-0.5,2.7,1.2,14.8-5.2,25.9
			c-4.1,7.1-3,29.6,18.7,34.9c0,0,2.6,1.8,7.8-1.3c5.1-3.1,8.3-6.6,15.2-6.9c6.9-0.3,8.8,10.9,13.5,8c4.7-2.9,11.9-9.2,15-19.7
			C335.5,580.2,342,552.1,325.6,544.2z"/>
		<path class="st19" d="M282.4,534.5c0,0-5.8,2.7-5.1,18.2c0.7,15.4,14.2,16.7,13.3,27.5c-0.9,10.8-11.7,18.3-15.2,12.6
			C272,587,280,568,280,568s-14.5,6.1-15.4,16.6c-0.9,10.5,13.8,21.3,20,21.8c6.4,0.6,11.3-8.8,17.1-8.3c5.8,0.5,17,6.3,21.3,3.9
			c11-6.3,9.3-38.1-0.7-48.1c-10-10-27.8-9.6-27.8-9.6s16.3,20.5,8.4,27.3c0,0-0.4-4-11.2-10.7C281.1,554.3,277.1,546.2,282.4,534.5
			z"/>
		<path class="st20" d="M304.7,551.5c0,0,1.8,13.7-9.1,13.7c-10.9,0-8.4,13.7-11.2,19.9c-2.8,6.2-8.4,19.2,0.2,21.3
			c8.7,2.2,11.2,1.4,20.8,0.3c7.4-0.9,16.5,0.9,19.4-8.2c2.8-9.1-8-28.1-8-28.1s0.7,15.3-6.4,17.3c-7.1,2-14.1-3.4-10-9.8
			c4.1-6.4,8.8-3.6,9.8-10.5C311.2,560.6,304.7,551.5,304.7,551.5z"/>
		<path class="st21" d="M279.2,579.7c0.9,8.2,10.5,14.4,8.9,18.8c0,0-6.6,1.1-9.8-6.8c0,0-1.9,4.4,2.5,9.4c4.4,5,8.2,4.6,8.2,4.6
			s-9.2,0.3-12-2.6c0,0,6,6.8,19,4.7c13-2.1,14.9-1.1,18.5-1.1c3.6,0,7.5-2.1,9.1-6.7c1.2-3.8-7.3-6.8-6.2-11.4
			c1.1-4.6,2.3-6.4,2.3-6.4s-7.8,5.9-6.4,9.4c1.4,3.4,0.2,7.8-2.1,7.8c-2.4,0-2-5.1-4-10.2c-2-5.1-9.2-1.4-13.2-5.3
			c-4-4-4.7-8.6-1.9-15.8c1.9-4.8,6.9-14.8,6.9-14.8S278.3,571.5,279.2,579.7z"/>
	</g>
	<path class="st17" d="M264.2,585c0.6-0.2-10.3,1.4-10.9,10c-0.6,8.6,2.8,10.8,6.6,9.6C268.4,602,251.3,589.5,264.2,585z"/>
	<g>
		<path class="st17" d="M265.4,585c0.6-0.2-10.3,1.4-10.9,10c-0.6,8.6,2.8,10.8,6.6,9.6C269.6,602,252.4,589.5,265.4,585z"/>
		<path class="st20" d="M257.7,592c0.1-1.4-3,10.7,0,12.4c0.3,0.2,0.6,0.3,0.9,0.5c0.7,0.1,1.5,0,2.4-0.3c0.3-0.1,0.6-0.2,0.9-0.3
			c0.2-0.4,0.4-0.8,0.4-1.3C262.2,601.3,257.3,597.7,257.7,592z"/>
	</g>
	<g>
		<path class="st22" d="M385.3,635.9c0,0,2.2-4,2.2-8.2c0-4.2-1.1-8.6-1.1-8.6l-4.3,1.1l3.6-3.7c0,0,0-7.4-6.6-12.7
			c-6.6-5.3-10.6-5.2-13.8-5.3c-3.7-0.1-9.7-0.6-14.7,2.1v3l-3-3c0,0-13.2,6-14.7,18.1c-1.2,9.2,3.1,17.1,3.1,17.1H385.3z"/>
		<path class="st23" d="M336.7,635.9c-1-2.2-3.4-8.8-2.5-16.2c1.2-9.9,10.2-15.7,13.1-17.2l4.7,4.8v-5.7c4.4-2.1,9.1-1.7,13.6-1.7
			c3.1,0.1,6.6,0.1,12.6,5.1c5,4.2,5.9,9.7,6.1,11.5l-6.6,7.2l7.6-2c1.3,6.9,0.8,10.2-0.9,14.2H336.7z"/>
		<path class="st24" d="M376.2,621.1c2.3-2.3,2.2-10.9-5-15.4c-7.2-4.6-14.8,1.1-16.9,4.5c-2.1,3.4-12.2-0.7-15.3,9.4
			c-1.8,5.9,0.4,12.2,2.6,16.4h37.4c0.8-2.8,1.2-5.7,0.6-7.1C378,625.4,373.9,623.4,376.2,621.1z"/>
		<path class="st25" d="M375.2,620.1c1.5-1.5,0.9-6.8-5.8-11c-5.9-3.7-11.8-1.6-13.9,1.8c-2.8,4.6-12.3-0.4-15.2,9
			c-1.8,5.8,0.7,12,2.9,15.9h34.3c0.8-3,1.2-5.6,0.8-6.5C376.8,626.4,371.8,623.4,375.2,620.1z"/>
		<path class="st26" d="M374.8,630.6c-0.3-0.5-0.8-1.1-1.2-1.6c-1.6-2-5.4-6.5-1.3-11c0-0.9-0.8-3.4-4.8-5.9c-1.5-0.9-3-1.4-4.5-1.4
			c-2.2,0-3.8,1.1-4.5,2.1c-2,3.3-5.6,3.7-8.4,4.1c-3.7,0.5-5.4,0.8-6.4,4.1c-1.7,5.5,1.7,12,3.6,14.9h26.5
			C374.5,633.4,374.9,631.4,374.8,630.6z"/>
		<path class="st27" d="M351.5,635.9c-1.4-2.5-8.2-11-1-15.5c2.6-1.6,13.3-9.2,20.6,11.2c0.8,2-0.1,3.2-1.3,4.3H351.5z"/>
		<path class="st27" d="M347.3,607.8c-7.3,1.8-9.8,6.3-10.6,13.8c-0.2,2.1-0.3,4.3-0.1,6.5c-2.1-5.9-1.1-15,4.4-18.5
			C342.8,608.4,345.1,607.8,347.3,607.8z"/>
		<path class="st27" d="M356,603c4.8-2.5,13-2.4,16.8,2.1C367.3,602.3,362.3,602.5,356,603z"/>
		<path class="st27" d="M383.1,625.8c1.6,3,1.2,8.5-1.8,10.1C382.8,632.6,382.5,629.4,383.1,625.8z"/>
		<path class="st28" d="M369,634.8c-0.8-5.3-3.6-10.9-8.7-12.6c-6.5-2.1-11.4-0.6-10.9,6.4c-0.9-4.6,1.3-8.2,7.1-7.8
			c4.8,0.3,8.3,2.6,10.4,6.2C368.1,629.3,368.9,632.1,369,634.8z"/>
		<g>
			<path class="st28" d="M365.1,634c-2.1-3.4-1.2-7.8-6.1-6c0,0-4.7,0.2-3.3,3.8c0.9,2.2,1.8,3.3,2.8,4.2h7.1
				C365.7,635.3,365.6,634.7,365.1,634z"/>
			<path class="st28" d="M351.8,629.9c-0.3-2.8,2.3-4.2,5.1-4.6c-2.8-0.1-5.6,1.2-5.8,3.9c-0.3,1.7,0.9,4.3,2.4,6.7h0.7
				c-1.9-3.5-2.1-4.6-2.2-4.9C351.9,630.5,351.9,631,351.8,629.9z"/>
		</g>
	</g>
	<path class="st29" d="M323.7,522.3c0,0,2.5,4.8,1.6,9c-1,4.5,6,4.9,2.8-1.9C325.6,524,323.7,522.3,323.7,522.3z"/>
	<g>
		<path class="st29" d="M372.5,624.6C372.5,624.6,372.5,624.6,372.5,624.6C372.5,624.6,372.5,624.6,372.5,624.6z"/>
		<path class="st29" d="M350.8,631C350.8,631,350.8,631,350.8,631L350.8,631z"/>
		<path class="st29" d="M350.8,631C350.8,631,350.8,631,350.8,631C350.8,631,350.8,631,350.8,631z"/>
		<path class="st29" d="M345.6,632.8C345.6,632.8,345.6,632.8,345.6,632.8L345.6,632.8z"/>
		<path class="st29" d="M372.5,624.6C372.5,624.6,372.5,624.6,372.5,624.6C372.5,624.6,372.5,624.6,372.5,624.6z"/>
		<path class="st22" d="M370.5,633c-0.1,0-0.8,0.1-6.6,2.1h0l-3.1-1.3c0.1-0.1,0.2-0.2,0.3-0.3c0.1-0.1,0.1-0.3,0-0.5
			c2.4-1.1,6.7-3.1,10.3-4.8c0-0.1,1-3.5,1-3.5l5.1-1c-0.2,0-4.9,0.9-5.2,0.9h0c0,0.1-1.1,3.4-1.1,3.4c-5.4,2.2-8.7,3.6-10.6,4.4
			c-0.2-0.2-0.5-0.5-0.7-0.7c-3.1-6.4-2.8-6-3.1-8.7c-0.2-1.3-0.8-5.3-0.8-6.6c-0.6-1.7-3.3-7.3-4.2-9.1c4,9,3.9,9.3,3.9,9.4
			c0,0.4,0.3,3.2,0.2,3.2c0.7,6.6,0.1,5.1,3.2,12c-0.2,0.2-0.4,0.5-0.5,0.8l-4.2,0.4c-0.1-0.1-3.6-1.8-3.8-1.9c0,0,0,0,0,0
			c-0.1,0-5.2,1.7-5.3,1.7l5.2-1c0.3,0.1,3.7,1.8,3.7,1.8c0.1,0,2.9-0.3,4.4-0.4c0,0.1,0.1,0.2,0.2,0.3c0.8,0.8,1.3,0.7,1.8,0.3
			c1.1,0.6,3.2,1.7,3.1,1.6c6.5-2.5,6.6-2.2,8.6-2.1l8.8,0.2C380.8,633.5,371.5,632.8,370.5,633z"/>
		<path class="st29" d="M372.4,624.6C372.4,624.6,372.4,624.6,372.4,624.6L372.4,624.6z"/>
	</g>
	<polygon class="st12" points="266.6,609.8 249.7,609.2 248.5,615.3 249.9,615.2 	"/>
	<path class="st22" d="M212.3,635.5H257c0,0,3.9-6.5,0-15.3c-3.3-7.4-4.9-8.3-4.9-8.3l-2.1,3.3l-0.2-6c0,0-1.7-3.9-10.2-5.2
		c-8.6-1.3-13.2,0.2-13.2,0.2l0.9,4l-5.1-1.8c0,0-6.2,2.4-9.4,12.5c-3.2,10.2-1.1,13.5-1.1,13.5l6.1,0.8l-5.9,0.4L212.3,635.5z"/>
	<path class="st30" d="M213.6,635.5l6.4-2.4l-7.3-0.6c-1.9-7.8,1.7-20,9.5-24.3l6.9,2.5l-1.1-5.4c5.5-1.1,17.3-0.2,20.3,4.5
		l0.3,10.7l3.6-5.8c0.7,1.1,1.9,3.2,3.5,6.9c2.9,6.8,1.2,12,0.4,13.9H213.6z"/>
	<g>
		<path class="st31" d="M215.4,630.4c-1-4.2-0.7-10,1.9-14c0.9-1.4,2.1-2.5,3.5-3.3c-1.2,1-2.3,2.2-3.2,3.5
			C215.4,620.7,215,625.9,215.4,630.4z"/>
		<path class="st31" d="M231.3,607.9c4.7-1.1,11.6-0.6,15.7,2.6C242.4,608,236.7,607.6,231.3,607.9z"/>
		<path class="st31" d="M226.8,611.7c-3.6,3.1-5.4,6.1-7.2,9.4C220.8,616.8,224,613.2,226.8,611.7z"/>
		<path class="st31" d="M219.6,625.1c-0.5,3.1,0,6.4,0,7C218.5,629.6,218.7,626.8,219.6,625.1z"/>
		<path class="st31" d="M236.4,611.7c3.7-1.5,10.1,0.8,11.3,5.3C245.7,613,240.1,611,236.4,611.7z"/>
		<path class="st31" d="M250.6,620.2c3.3,3.3,5.4,8.6,4.4,14c0-0.7,0.2-3.8-1-7.3C253.2,624.7,252.1,622.4,250.6,620.2z"/>
	</g>
	<path class="st31" d="M249.8,628.6c0-6-2.7-5.5-3.3-9.1c-0.5-3.7-5.2-6.7-12.2-6.7c-7,0-7.3,3.1-10.2,7.4
		c-2.9,4.2-0.9,8.3-2.6,11.6c-0.9,1.7-0.8,2.9-0.6,3.7h28.2C249.5,633.7,249.8,631.3,249.8,628.6z"/>
	<path class="st23" d="M222.9,635.5c2-4.2,0.6-11.3,2.7-14.4c3.2-4.6,4.2-6.1,9-6.1c5.5,0,8.2,3.5,8.5,5c0.3,2.4,2.5,3.5,3.2,4.5
		c0.7,0.9,1.5,2.3,1.5,4.6c0,2.6-0.7,5.5-2.5,6.4H222.9z"/>
	<path class="st12" d="M244.2,635.5c0.4-2.6,0.7-5.2,0.3-6.9c-0.9-4.5-3.2-4.6-5.4-8.4c-2.2-3.8-5.4-1.9-9.5,0.5
		c-4,2.4-3.1,5.9-3.3,11.2c-0.1,1.3-0.2,2.5-0.3,3.6H244.2z"/>
	<path class="st32" d="M226.9,635.5c0.1-1,0.2-2,0.2-3c0-1.1,0-2.1,0-3c0-3.9,0-6.3,2.9-8.1c2.2-1.4,4.3-2.6,5.9-2.6
		c0.7,0,1.7,0.2,2.6,1.9c0.9,1.6,1.8,2.6,2.6,3.5c1.2,1.3,2.2,2.4,2.7,5c0.3,1.4,0.2,3.5-0.2,6.3H226.9z"/>
	<path class="st33" d="M238.5,631.7c0-4-5.7-6.2-7.2-1.1c-0.4,1.4-0.9,3.1-1.4,4.9h8.6C238.5,634,238.5,632.7,238.5,631.7z"/>
	<g>
		<path class="st12" d="M227.5,626.9C227.5,626.9,227.5,626.9,227.5,626.9C227.5,626.9,227.5,626.9,227.5,626.9z"/>
		<path class="st12" d="M223.7,626.2L223.7,626.2C223.7,626.2,223.7,626.2,223.7,626.2z"/>
		<path class="st12" d="M227.5,626.8C227.5,626.8,227.5,626.8,227.5,626.8C227.5,626.8,227.5,626.8,227.5,626.8z"/>
		<path class="st12" d="M229.9,634.6L229.9,634.6C229.9,634.6,229.9,634.6,229.9,634.6z"/>
		<path class="st12" d="M228.8,631.8L228.8,631.8C228.8,631.8,228.8,631.8,228.8,631.8z"/>
		<path class="st12" d="M227.5,626.8C227.5,626.8,227.5,626.8,227.5,626.8L227.5,626.8z"/>
		<g>
			<polygon class="st12" points="227.5,626.9 227.5,626.9 227.5,626.9 			"/>
			<path class="st12" d="M243,621.9c0,0.1,0,3.1,0,3.2l-8.3,7.1c0,0,0,0-0.1,0c0.1-0.7,0.6-5.4,0.6-5.5c0,0,0,0,0,0
				c-0.1-0.1-2.7-3.8-2.6-3.8c0-0.1,0-6.6,0-6.6c-0.1-0.1-3.5-5.7-3.5-5.6l3.1,5.7c0,0.2,0,6.6,0,6.6c0.1,0.1,2.3,3.9,2.3,3.8
				l-0.5,5.1c-0.3,0-0.4,0.1-0.5,0.4l-4.1-1.1c0-0.1-2.4-4.1-2.5-4.4c-0.1,0-3.1-0.7-3.1-0.7l3,0.9c0.1,0.2,2,4.6,2.1,4.7
				c0.1,0,3.5,0.9,4.5,1.2c0,0.1,0,0.2,0,0.2l-3.5,0.8l-7-0.4c0.1,0,7,0.9,7.1,0.9c0.1,0,2.5-0.6,3.7-0.9c0.2,0.3,0.6,0.6,1.1,0.2
				c0.6-0.5,0.5-1,0.5-1c0-0.1,0-0.2-0.1-0.3l8.2-7.1v-0.3c0-0.2,0-3,0-3.1h0l5.2-1.7C248.4,620.6,243.1,621.9,243,621.9z"/>
		</g>
		<path class="st12" d="M235.2,626.6L235.2,626.6L235.2,626.6z"/>
		<path class="st12" d="M235.2,626.6C235.2,626.6,235.2,626.6,235.2,626.6L235.2,626.6z"/>
		<polygon class="st12" points="228.4,622.2 226.9,621.1 228,622.5 		"/>
		<polygon class="st12" points="237.6,616.1 236.6,618.7 237.1,618.8 		"/>
		<polygon class="st12" points="244.3,632.1 247.1,631.8 244.3,631.6 		"/>
	</g>
	<g>
		<path class="st12" d="M239.6,625.5c1.6,1.7,2.9,4,3,6.3c0,1.2-0.1,2.5-0.2,3.7h0.1c0.2-1.3,0.2-2.6,0.2-3.7
			C242.7,629.4,241.2,627.1,239.6,625.5z"/>
		<path class="st12" d="M238.5,623.2c-1.5-4.6-5.8-2.7-8.3,1.5C232.9,620.9,236.7,618.7,238.5,623.2z"/>
		<path class="st12" d="M229.1,627.9c-0.5,2-0.9,5.2-0.5,7.6h0.1C228.4,633,228.8,629.8,229.1,627.9z"/>
		<path class="st12" d="M231.1,627.9c2.3-3.7,5.2-3.7,7.6-0.7C236.4,623.8,233.1,624,231.1,627.9z"/>
	</g>
</g>
</svg>
